<?xml version="1.0" encoding="UTF-8" standalone="no"?>
<!-- Created with Inkscape (http://www.inkscape.org/) -->

<svg
   version="1.1"
   id="svg9"
   width="5312.6401"
   height="3855.3601"
   viewBox="0 0 5312.6401 3855.3601"
   sodipodi:docname="astro.svg"
   xml:space="preserve"
   inkscape:version="1.2.2 (732a01da63, 2022-12-09)"
   xmlns:inkscape="http://www.inkscape.org/namespaces/inkscape"
   xmlns:sodipodi="http://sodipodi.sourceforge.net/DTD/sodipodi-0.dtd"
   xmlns="http://www.w3.org/2000/svg"
   xmlns:svg="http://www.w3.org/2000/svg"><defs
     id="defs13" /><sodipodi:namedview
     id="namedview11"
     pagecolor="#ffffff"
     bordercolor="#000000"
     borderopacity="0.25"
     inkscape:showpageshadow="2"
     inkscape:pageopacity="0.0"
     inkscape:pagecheckerboard="0"
     inkscape:deskcolor="#d1d1d1"
     showgrid="false"
     inkscape:zoom="0.10766094"
     inkscape:cx="-2582.1808"
     inkscape:cy="-278.6526"
     inkscape:window-width="2560"
     inkscape:window-height="1377"
     inkscape:window-x="2552"
     inkscape:window-y="-8"
     inkscape:window-maximized="1"
     inkscape:current-layer="g639" /><g
     inkscape:groupmode="layer"
     inkscape:label="Image"
     id="g15"><g
       transform="matrix(0.09420495,0,0,-0.09132989,55.12746,3806.3894)"
       fill="#000000"
       stroke="none"
       id="g639"><path
         d="m 24881.378,41104.344 -433.509,-214.318 -267.899,141.255 c -384.8,204.578 -523.62,214.32 -611.296,41.403 -51.143,-99.853 -34.096,-292.253 60.887,-623.474 l 68.191,-245.979 -216.754,-263.028 c -209.448,-255.721 -360.444,-462.733 -360.444,-494.395 0,-9.741 26.789,-41.402 60.885,-73.063 53.58,-51.144 87.676,-58.45 263.028,-60.886 109.595,-2.435 231.366,4.871 267.899,14.613 36.531,9.741 136.384,24.354 219.189,34.095 l 150.997,14.614 182.658,-404.284 c 99.854,-224.061 202.142,-418.896 226.498,-438.379 92.545,-65.758 185.092,12.177 270.333,231.366 48.709,124.209 48.709,121.773 99.853,348.269 41.403,182.658 63.322,297.124 73.063,370.188 2.436,26.789 7.307,56.014 9.742,65.756 4.871,36.532 267.899,90.111 557.717,116.901 328.784,26.79 431.072,63.322 470.04,165.61 56.014,143.692 -124.208,314.172 -509.008,482.218 -97.418,41.403 -185.093,82.805 -189.963,90.111 -7.308,7.306 31.66,146.127 87.674,309.301 116.903,338.527 131.515,482.218 63.322,557.717 -26.789,29.225 -60.886,51.143 -77.934,51.143 -14.613,0 -226.496,-97.417 -465.169,-216.754 z m 309.301,-131.513 c 0,-4.871 -38.968,-121.772 -85.24,-260.593 -133.951,-399.412 -114.466,-465.17 175.352,-582.071 77.933,-31.66 202.141,-92.546 275.204,-133.948 l 133.95,-75.499 -243.545,-19.484 c -228.931,-17.048 -628.344,-114.465 -681.924,-165.61 -12.177,-12.177 -41.402,-138.82 -65.756,-282.512 -51.145,-297.124 -114.467,-543.102 -141.256,-543.102 -9.742,0 -82.806,143.69 -158.303,319.042 -77.935,175.352 -160.74,340.963 -182.659,370.188 -41.403,48.708 -43.838,48.708 -221.626,9.741 -177.786,-41.403 -513.878,-90.111 -528.49,-77.934 -4.871,4.871 102.288,141.256 236.237,306.865 136.386,165.611 245.98,316.608 245.98,336.092 0,21.919 -31.66,153.432 -73.063,294.689 -38.967,141.255 -80.37,306.865 -87.676,370.186 l -17.048,116.902 73.063,-24.355 c 38.967,-14.613 180.223,-85.24 311.737,-158.303 133.949,-73.064 263.028,-133.95 292.253,-131.515 26.789,0 197.271,75.499 377.494,168.046 304.43,155.869 365.316,182.658 365.316,163.175 z"
         id="path201"
         style="stroke-width:2.43544" /><path
         d="m 47474.977,35191.091 c -233.802,-121.772 -260.591,-460.299 -43.837,-591.812 175.352,-107.16 406.719,-48.71 494.395,121.772 73.063,141.255 24.354,367.752 -94.983,448.122 -94.982,60.885 -258.157,70.626 -355.575,21.918 z"
         id="path215"
         style="stroke-width:2.43544" /><path
         d="m 46439.915,33798.019 c -82.805,-36.533 -141.256,-119.338 -148.563,-221.627 -12.177,-187.529 177.788,-301.994 362.882,-216.754 70.628,31.661 114.465,116.901 114.465,219.19 0,104.724 -41.402,168.046 -133.949,207.012 -92.546,38.968 -124.208,38.968 -194.835,12.179 z"
         id="path223"
         style="stroke-width:2.43544" /><path
         d="m 46651.798,33245.173 c -70.628,-48.71 -75.499,-202.142 -4.87,-265.464 70.626,-63.322 221.624,-26.789 253.285,63.322 31.661,90.112 2.435,180.223 -70.627,211.883 -82.805,38.967 -112.032,36.531 -177.788,-9.741 z"
         id="path225"
         style="stroke-width:2.43544" /><path
         d="m 31327.995,40115.555 c -1064.288,-94.982 -2243.042,-438.379 -3324.378,-974.177 -1037.501,-511.443 -1921.566,-1147.094 -2795.89,-2011.674 l -433.509,-426.204 -77.933,146.127 c -94.983,182.659 -435.945,530.926 -630.781,642.956 -180.223,107.16 -418.895,187.53 -689.23,233.804 -674.617,116.901 -1390.637,-219.191 -1755.953,-825.616 -41.402,-65.756 -224.061,-460.298 -409.154,-876.759 -185.094,-414.025 -426.202,-957.129 -538.234,-1205.544 -353.138,-786.647 -662.439,-1492.925 -703.842,-1614.699 -97.418,-289.817 -109.595,-686.794 -26.79,-1003.401 19.483,-80.37 87.676,-250.85 148.563,-377.494 94.982,-194.836 148.561,-265.462 323.913,-438.379 172.917,-172.917 248.415,-228.931 440.815,-321.478 316.608,-155.869 535.798,-199.706 915.727,-185.094 l 299.559,12.177 -14.613,-392.106 c -26.791,-740.375 85.239,-1534.329 304.43,-2184.593 294.689,-864.58 784.213,-1665.842 1517.28,-2489.021 l 126.644,-141.255 -241.109,14.612 c -443.25,29.225 -1721.859,-70.628 -2530.425,-197.27 -214.318,-34.097 -460.297,-73.064 -547.973,-85.241 -209.45,-31.66 -830.487,-175.352 -1254.253,-292.253 -1490.491,-409.154 -3080.835,-1166.577 -4313.168,-2055.513 -560.153,-404.284 -1203.11,-940.082 -1203.11,-1003.402 0,-14.614 43.839,-80.37 99.853,-150.998 l 99.853,-124.207 -82.804,19.483 c -43.838,9.741 -250.851,17.048 -457.863,17.048 -333.655,-2.436 -404.283,-9.742 -618.602,-68.193 -406.72,-112.03 -784.212,-340.961 -857.276,-521.184 -87.676,-204.577 109.595,-343.397 523.62,-370.188 l 226.497,-14.612 -104.726,-75.499 c -58.449,-41.402 -343.396,-226.496 -630.779,-409.154 -628.343,-401.848 -684.359,-450.556 -701.407,-621.038 -21.918,-236.238 146.126,-355.575 482.218,-338.527 l 189.965,7.306 -73.064,-99.853 c -187.529,-263.027 -56.016,-528.49 277.641,-562.586 119.336,-12.177 248.414,17.048 438.379,99.853 36.532,17.048 31.661,0 -19.484,-92.547 -38.966,-70.628 -68.193,-168.046 -75.499,-255.722 -12.177,-129.078 -7.306,-146.125 58.451,-219.189 141.255,-160.74 365.317,-121.772 779.342,138.82 l 199.706,124.208 -85.241,-172.917 c -124.207,-265.463 -102.288,-462.734 63.322,-530.927 216.755,-90.11 569.893,124.209 976.613,594.249 543.103,623.473 867.017,1207.979 893.807,1602.521 l 9.742,185.094 163.175,-180.223 c 107.159,-121.772 177.786,-180.223 214.318,-180.223 31.661,0 129.078,63.322 231.367,153.433 927.904,803.696 2050.642,1463.701 3265.927,1914.257 314.174,116.901 971.742,319.043 1161.706,355.575 46.275,7.306 207.013,41.402 353.14,73.064 148.561,31.66 372.623,75.497 499.266,97.417 126.642,19.484 260.592,43.838 294.688,51.144 48.71,9.742 9.742,-41.402 -192.4,-250.85 -1042.37,-1081.336 -1612.262,-2028.724 -1773.002,-2954.192 -60.886,-348.268 -36.531,-852.404 53.581,-1205.544 l 70.627,-267.899 -116.901,-345.832 c -204.577,-603.989 -253.287,-947.387 -163.175,-1149.529 l 48.709,-107.159 -129.078,-136.385 c -248.416,-263.028 -703.844,-944.952 -1035.063,-1548.941 -277.641,-509.008 -672.183,-1449.089 -901.114,-2155.367 -204.577,-625.909 -428.638,-1485.619 -479.782,-1826.582 -7.306,-60.887 -36.531,-202.142 -60.887,-316.607 -43.837,-194.836 -221.625,-1356.5418 -255.72,-1660.9719 l -14.613,-141.2564 h -107.16 -107.16 l -12.177,-102.2885 c -85.24,-723.3258 -109.594,-976.6124 -97.417,-998.5311 7.306,-12.177 60.886,-19.4832 121.771,-19.4832 104.726,0 107.161,-2.4354 107.161,-77.9345 0,-43.8373 -7.308,-136.3842 -14.614,-204.577 l -14.612,-124.2072 -248.415,-43.8387 c -1156.835,-202.1416 -2055.513,-635.6497 -2518.247,-1220.1559 -328.784,-414.0249 -467.605,-828.0511 -467.605,-1395.5081 0,-375.0583 7.306,-384.7999 297.123,-474.9114 579.636,-175.3521 1229.899,-309.3009 1838.76,-379.9291 1563.554,-180.223 2856.773,-70.6283 3884.53,331.2196 297.124,116.9009 832.921,392.1062 920.597,472.476 214.319,199.7062 250.851,1485.6195 58.451,2057.9486 -53.58,155.8689 -56.016,194.8354 -41.403,482.2177 l 14.612,309.301 h 94.983 c 80.369,0 92.546,7.3062 92.546,56.0157 0,75.499 68.193,716.0196 87.677,825.6143 l 14.612,90.1115 -148.561,17.0479 c -146.127,14.6124 -150.998,17.0478 -138.821,80.3698 7.307,34.0957 46.274,304.4301 87.676,599.1186 80.37,579.6354 243.545,1449.0883 316.608,1697.5043 24.354,85.239 75.498,258.156 112.03,384.8 36.532,126.642 87.677,260.591 112.031,297.124 102.288,148.561 189.964,379.928 219.189,579.634 41.403,304.431 289.818,869.453 657.57,1492.927 l 170.481,287.382 92.547,-80.37 c 326.348,-282.511 547.973,-465.17 689.23,-565.023 148.561,-107.159 645.391,-340.961 966.869,-455.428 255.722,-92.547 1039.934,-197.271 1704.81,-228.931 543.103,-24.354 489.524,-2.435 630.779,-277.641 216.756,-423.766 306.866,-713.584 382.365,-1249.382 102.288,-716.0193 -87.676,-1612.2619 -540.668,-2545.0369 -121.773,-253.2852 -418.897,-789.0832 -460.299,-830.4851 -2.435,-4.8708 -43.837,14.6124 -87.676,41.4019 -46.272,29.2263 -90.111,51.145 -99.853,51.145 -7.306,0 -51.143,-58.4512 -92.547,-126.6426 -43.837,-70.6282 -160.738,-243.545 -263.028,-382.3646 -170.48,-238.6741 -177.786,-255.722 -136.384,-287.3823 41.403,-29.2262 31.66,-43.8387 -124.207,-204.577 -121.772,-121.7731 -219.19,-194.8354 -340.963,-250.8511 -226.495,-107.1594 -396.977,-226.4957 -694.101,-489.5239 -272.77,-238.6728 -584.506,-596.6832 -691.665,-789.0832 l -65.758,-124.2072 36.533,-189.9646 c 331.22,-1607.3926 1646.359,-3295.1537 3577.664,-4585.93784 552.845,-367.75211 825.615,-518.74878 905.985,-499.26552 87.676,21.91867 336.093,238.67273 499.268,435.94353 528.491,640.52194 633.215,1478.31333 301.995,2430.57153 -112.031,323.9134 -394.542,881.6301 -628.348,1239.6406 l -180.221,277.6406 148.561,170.4799 c 82.805,92.5469 185.097,204.577 224.063,250.8512 l 73.064,82.8052 85.24,-63.322 c 168.046,-126.6426 146.126,-138.8196 396.977,214.3187 126.643,175.3521 280.076,401.8478 343.397,499.2655 l 112.032,175.3521 -121.774,75.4991 c -116.901,70.6282 -121.771,77.9344 -90.111,129.078 114.467,172.9167 411.591,708.7147 552.846,991.2248 231.366,457.8636 416.46,908.4209 584.506,1410.1218 165.611,496.8302 224.06,708.7134 319.043,1193.3665 36.532,194.8354 92.546,435.9449 121.771,535.798 58.452,207.0124 75.499,684.3589 26.791,876.7589 -14.612,60.886 -43.839,280.075 -65.757,487.089 -85.241,840.227 -231.367,1458.828 -504.137,2128.575 l -97.417,238.674 116.901,224.061 c 63.322,121.771 124.207,226.495 136.385,228.931 12.177,4.871 119.337,73.063 238.673,150.998 543.104,358.011 981.483,927.903 1237.205,1607.392 272.769,723.327 414.025,1395.509 460.298,2187.028 l 14.612,272.768 343.398,-336.09 c 1858.243,-1811.97 3816.338,-2993.159 5725.724,-3451.022 621.039,-150.998 1251.818,-233.803 1763.262,-238.674 294.688,-2.436 328.784,2.435 360.444,43.839 24.354,34.095 29.225,80.369 19.484,155.867 l -17.048,104.724 82.805,-63.32 c 221.625,-168.047 786.648,-367.753 1363.848,-479.783 323.913,-65.757 959.564,-80.37 1132.481,-26.789 221.625,65.756 321.478,231.366 241.108,399.412 -48.708,102.288 -155.869,175.351 -358.01,243.544 l -155.868,53.58 258.156,41.402 c 479.782,75.499 625.91,141.257 679.489,304.431 63.322,192.399 -92.547,392.106 -360.445,462.734 -112.03,29.225 -114.465,29.225 -41.403,46.273 282.511,65.757 431.074,158.304 501.701,314.173 104.724,228.931 29.226,411.589 -204.577,487.088 l -141.255,46.273 80.37,46.274 c 260.591,153.432 370.186,452.992 226.495,623.473 -112.03,133.949 -202.141,138.819 -869.453,38.966 -959.564,-143.69 -1005.837,-148.561 -1013.143,-143.69 -4.871,4.871 29.225,29.225 75.499,58.45 114.465,70.628 294.688,265.463 355.573,387.235 124.208,241.11 14.613,379.929 -292.253,377.494 -455.426,-2.436 -1030.191,-263.027 -1424.733,-645.392 l -172.916,-168.045 -12.177,136.384 c -7.307,82.805 -26.791,148.562 -46.275,160.739 -19.483,12.178 -129.078,21.919 -243.543,21.919 -211.883,0 -530.927,41.403 -886.501,112.03 -1190.931,238.674 -2520.683,971.742 -3884.531,2143.19 -377.493,326.35 -1088.642,1022.886 -1432.04,1410.121 -409.154,457.863 -796.39,840.227 -979.048,959.565 -87.676,58.45 -136.384,99.853 -109.595,92.545 26.791,-7.306 185.094,-31.66 355.575,-53.579 1220.156,-153.433 2406.216,-51.144 3455.892,294.689 823.181,270.334 1512.411,681.924 2206.512,1317.574 l 221.625,202.141 94.982,-160.738 c 116.901,-202.142 372.623,-462.734 567.458,-579.635 348.268,-211.884 796.39,-311.737 1178.754,-260.593 423.767,56.016 740.374,211.883 1039.933,513.878 221.626,221.626 306.867,355.575 484.653,767.164 248.416,567.459 1173.883,2649.761 1276.172,2866.517 175.352,370.186 216.755,526.055 228.932,862.145 12.177,245.981 4.871,326.35 -38.968,496.83 -160.738,635.651 -650.262,1134.917 -1281.042,1302.963 -204.577,53.579 -603.99,73.063 -764.729,38.966 -73.062,-14.612 -136.384,-24.354 -141.255,-17.048 -4.871,4.871 7.306,221.625 31.66,479.783 63.322,733.067 38.968,1622.005 -60.885,2311.235 -182.658,1234.768 -472.476,2211.381 -952.258,3190.428 -776.907,1580.602 -1958.096,2886 -3407.184,3762.759 -547.974,328.785 -1434.475,725.762 -2011.675,898.678 -314.173,92.547 -759.858,202.142 -891.372,219.19 -46.274,4.871 -202.143,26.789 -350.704,48.709 -650.263,92.547 -1507.538,112.031 -2228.43,51.144 z m 1680.455,-160.74 c 494.395,-43.837 723.327,-85.239 1417.428,-255.72 1899.645,-467.606 3699.437,-1714.552 4848.965,-3353.604 379.929,-540.669 674.618,-1059.417 918.163,-1612.263 82.805,-187.53 163.173,-375.059 182.658,-414.025 82.804,-182.659 314.172,-905.984 401.848,-1263.995 224.06,-903.549 306.865,-1692.632 284.947,-2730.131 -24.356,-1112.996 -153.434,-1943.483 -457.864,-2954.191 -370.188,-1229.899 -1025.322,-2510.941 -1736.471,-3395.007 -884.065,-1095.949 -2074.996,-1860.678 -3387.699,-2169.979 -1317.575,-311.736 -2917.66,-209.447 -4729.63,301.995 -1463.701,414.025 -3416.927,1305.397 -4661.438,2131.012 -1580.602,1049.676 -2613.23,2140.754 -3239.138,3431.538 -650.263,1332.186 -786.648,2715.519 -423.768,4223.057 594.248,2459.796 2157.802,4751.548 4249.848,6237.168 830.485,589.377 1948.356,1151.964 2825.114,1419.862 596.685,182.658 1449.088,350.704 2094.481,414.026 204.577,21.919 1156.836,14.613 1412.556,-9.743 z m -9420.293,-2447.619 c 384.8,-114.466 776.907,-438.379 957.13,-791.519 l 94.982,-185.093 -153.434,-180.222 c -85.239,-99.853 -163.173,-189.965 -172.915,-199.706 -9.742,-12.179 -56.016,46.272 -99.853,131.513 -146.127,270.335 -431.074,518.749 -725.763,633.214 -163.173,60.887 -224.06,73.064 -455.426,87.677 -438.381,29.226 -937.646,-207.013 -1193.368,-565.023 -94.982,-136.385 -309.301,-594.248 -1110.561,-2398.91 -236.237,-530.926 -289.818,-694.101 -304.43,-925.468 -43.837,-711.15 421.331,-1329.752 1100.819,-1473.444 189.965,-38.966 384.8,-43.837 543.104,-14.612 121.772,24.355 116.901,38.968 65.756,-277.641 -19.483,-119.336 -36.531,-226.495 -36.531,-236.237 0,-29.225 -245.978,-68.193 -445.686,-68.193 -253.285,0 -433.508,46.274 -698.972,175.352 -163.173,77.935 -248.414,141.257 -404.283,297.124 -301.995,301.995 -452.991,623.474 -487.088,1035.064 -31.661,367.752 -12.177,418.895 845.099,2352.637 431.072,964.435 815.872,1811.968 857.276,1885.032 102.288,172.917 360.444,433.509 535.796,535.798 177.787,104.724 414.025,189.963 606.425,219.189 194.835,29.225 516.314,12.177 681.923,-36.532 z m -241.108,-774.469 c 209.448,-75.5 372.623,-180.223 513.878,-331.221 121.772,-129.078 292.253,-452.993 265.464,-496.831 -9.742,-14.612 -87.676,-124.207 -172.917,-241.108 -713.584,-991.226 -1349.235,-2323.412 -1648.794,-3460.764 -46.273,-172.917 -87.677,-319.043 -94.983,-323.913 -26.789,-29.225 -214.318,-56.016 -382.364,-56.016 -328.784,0 -603.989,114.465 -842.662,355.575 -316.609,314.172 -445.687,798.825 -314.173,1173.883 92.547,263.028 1205.545,2756.92 1285.914,2883.563 87.676,141.256 306.866,343.398 443.25,414.026 297.124,153.432 655.134,185.094 947.387,82.806 z m 18611.652,-7759.32 c 784.212,-182.659 1278.607,-789.084 1278.607,-1570.861 0,-301.994 -34.096,-433.508 -216.754,-859.711 -138.821,-326.349 -1071.595,-2428.135 -1183.625,-2671.68 -31.661,-65.757 -94.982,-214.318 -143.692,-326.349 -121.771,-280.076 -231.366,-433.509 -440.814,-630.78 -304.431,-284.947 -660.005,-426.202 -1071.595,-426.202 -603.99,0 -1159.27,338.526 -1414.992,862.147 l -65.756,136.384 165.609,192.4 c 92.547,107.16 168.046,197.271 172.917,199.706 2.435,4.871 36.531,-48.708 73.063,-121.771 90.112,-180.223 372.623,-450.558 572.329,-547.975 545.539,-267.898 1193.367,-180.223 1624.44,221.626 163.175,153.432 294.688,355.574 414.024,635.65 41.404,94.982 309.303,701.407 596.684,1351.67 289.817,650.264 538.233,1229.898 552.845,1290.784 38.968,148.563 38.968,470.041 2.436,633.216 -17.048,73.062 -70.628,216.754 -119.336,316.607 -168.046,355.574 -584.507,686.795 -952.259,754.986 -168.046,31.662 -494.394,29.227 -633.214,-2.435 -58.451,-12.177 -109.595,-19.483 -114.466,-14.612 -12.178,9.741 77.933,491.959 97.418,523.621 12.177,21.918 70.627,38.966 319.043,87.676 119.336,21.918 294.688,9.741 487.088,-34.097 z m -36.532,-823.179 c 477.346,-202.142 754.987,-608.861 754.987,-1110.563 0,-211.883 -19.483,-309.301 -109.595,-538.232 -53.58,-136.384 -589.377,-1346.8 -767.164,-1729.164 -43.838,-92.547 -148.561,-328.785 -236.238,-523.62 -85.24,-194.835 -189.964,-404.283 -231.367,-470.041 -194.836,-304.43 -616.167,-528.49 -993.661,-528.49 -431.072,0 -876.759,277.641 -1066.723,662.439 l -80.369,163.175 182.657,263.028 c 691.666,1008.273 1193.368,2143.19 1536.765,3470.505 46.274,175.352 92.546,328.786 102.288,338.527 51.145,51.144 299.559,94.983 506.572,87.676 180.223,-7.306 250.851,-21.92 401.848,-85.24 z m -17854.229,-2686.294 180.223,-26.789 294.688,-260.593 c 163.175,-141.255 396.977,-340.961 523.62,-440.815 l 228.932,-180.222 -204.577,-51.144 c -448.122,-114.467 -957.129,-306.867 -1385.768,-523.621 -511.442,-260.591 -881.63,-528.49 -1558.681,-1117.867 -109.596,-94.983 -112.032,-97.418 -560.152,-170.482 -674.618,-112.03 -1302.961,-265.463 -1936.177,-474.911 -857.276,-284.947 -1855.807,-762.294 -2489.021,-1188.496 -97.418,-63.322 -180.223,-116.901 -187.529,-116.901 -4.871,0 -46.275,58.45 -90.112,129.078 -46.274,68.193 -358.01,533.363 -694.101,1027.758 -336.092,496.83 -628.345,930.338 -652.699,964.434 l -41.402,65.757 226.496,143.692 c 1434.476,927.903 2893.305,1519.715 4756.418,1928.869 1242.076,272.77 2825.113,401.848 3589.842,292.253 z m 1604.957,-1176.318 c 319.042,-221.625 954.692,-611.296 1410.12,-859.71 891.375,-487.089 2094.483,-1003.404 3088.143,-1324.882 294.688,-94.982 560.152,-182.658 589.377,-194.835 63.322,-24.354 219.191,-319.043 358.01,-679.489 51.145,-126.642 107.16,-263.028 124.208,-304.43 85.24,-194.835 224.061,-735.504 294.688,-1156.835 85.241,-518.749 65.757,-1921.564 -38.966,-2747.179 -65.758,-506.571 -175.353,-1003.402 -219.19,-1003.402 -53.58,0 -1716.987,754.987 -1712.117,776.907 7.307,26.789 638.087,1449.088 774.471,1743.776 204.577,440.815 270.335,742.81 248.416,1139.787 -34.097,635.651 -355.575,1227.463 -857.276,1587.908 -172.917,124.208 -282.511,180.223 -815.873,418.897 -652.699,294.688 -2781.278,1242.074 -2878.696,1281.042 -326.349,136.384 -930.338,168.046 -1298.09,68.192 -396.977,-107.16 -733.068,-306.866 -1015.579,-606.425 -238.674,-255.721 -297.124,-362.88 -750.117,-1393.073 -143.69,-328.784 -314.171,-713.584 -377.493,-857.276 l -114.466,-258.156 -272.77,121.772 c -1288.348,572.329 -1646.359,737.938 -1646.359,754.987 0,36.531 194.836,311.737 435.945,616.167 267.899,340.961 1151.964,1232.334 1568.425,1583.037 528.49,445.687 891.371,681.924 1432.039,930.34 426.203,192.4 1098.385,416.46 1478.315,491.959 4.87,2.435 92.546,-56.016 194.835,-129.079 z m -9705.238,-2328.282 c 326.35,-462.735 642.957,-910.857 706.279,-998.533 63.321,-85.24 114.466,-163.173 114.466,-170.48 0,-7.307 -31.662,-38.967 -68.193,-65.757 l -68.193,-51.145 -438.379,599.119 c -238.674,328.785 -550.41,750.116 -691.665,940.081 -141.257,189.965 -297.124,399.412 -348.269,470.041 l -92.547,126.642 92.547,63.322 92.547,63.321 53.58,-68.192 c 31.66,-36.532 321.478,-445.686 647.827,-908.419 z m 9744.204,886.501 c 82.806,-21.92 779.342,-316.609 1548.942,-660.005 769.601,-340.963 1514.847,-669.747 1656.103,-730.634 411.59,-180.221 567.457,-263.027 742.809,-404.283 306.866,-245.979 555.282,-628.344 660.006,-1015.579 58.449,-214.319 60.885,-730.633 2.435,-937.646 -48.71,-180.223 -209.448,-555.28 -845.099,-1984.885 -635.65,-1429.605 -818.308,-1802.227 -966.871,-1980.014 -409.154,-487.089 -1056.983,-747.681 -1663.408,-672.182 -245.981,29.225 -460.299,97.417 -791.52,253.285 -133.949,63.322 -786.648,355.575 -1449.087,647.828 -1829.017,811.002 -1748.648,772.035 -2026.288,1000.966 -228.931,189.965 -445.687,540.669 -560.152,896.243 -48.708,158.304 -56.015,228.932 -53.579,535.798 2.435,309.301 9.741,377.494 63.32,547.975 36.533,107.159 309.303,747.68 611.297,1424.733 1052.11,2359.943 976.613,2201.64 1173.884,2445.184 284.946,348.269 735.502,596.683 1212.849,674.618 168.046,24.354 501.701,4.87 684.359,-41.402 z M 15495.184,21460.067 c 443.25,-557.715 806.131,-1020.45 806.131,-1030.191 0,-9.742 -87.676,-90.112 -192.4,-180.223 l -192.4,-163.175 -265.463,297.123 c -146.126,163.176 -297.124,353.14 -336.091,418.898 -146.127,258.156 -431.074,572.329 -669.746,742.809 -60.887,41.403 -194.836,170.481 -297.124,287.382 -148.563,165.61 -182.659,216.754 -160.74,243.545 48.709,58.45 457.864,394.541 479.782,394.541 12.177,0 384.8,-455.428 828.051,-1010.709 z m 16073.921,168.046 c 474.91,-104.724 903.548,-379.929 1312.703,-837.792 1008.272,-1127.61 1716.987,-1799.792 2579.132,-2445.184 954.694,-713.585 1924,-1229.898 2781.276,-1480.75 141.255,-41.402 260.592,-77.933 265.464,-80.368 14.612,-12.178 -577.2,-2527.989 -599.12,-2549.908 -41.402,-38.968 -991.225,267.898 -1424.733,462.733 -1556.248,694.101 -2812.936,1568.425 -4271.766,2968.805 l -445.685,426.202 v 416.46 c -2.436,791.519 -56.016,1329.752 -187.53,1855.807 -85.24,348.269 -263.028,869.453 -370.187,1095.949 -77.935,165.61 -87.676,197.271 -53.581,209.449 48.71,19.483 216.756,2.436 414.027,-41.403 z m -17598.508,0 c 350.704,-80.37 406.719,-121.772 852.405,-618.602 375.058,-416.46 409.154,-462.734 457.862,-613.731 104.724,-331.221 34.097,-613.733 -289.817,-1134.917 -399.413,-645.392 -988.79,-1246.947 -1217.721,-1246.947 -153.433,0 -107.159,158.305 168.046,565.023 109.595,160.74 219.189,340.962 245.979,401.848 46.274,102.289 46.274,112.03 4.871,155.869 -21.919,24.354 -53.579,46.273 -68.192,46.273 -14.614,0 -92.547,-60.885 -172.916,-136.384 -282.512,-265.464 -747.682,-584.507 -957.129,-655.135 -116.901,-41.402 -175.353,-12.177 -175.353,87.676 0,109.595 77.935,243.544 277.641,465.17 387.235,438.379 511.443,677.053 360.446,696.536 -56.016,9.742 -133.95,-48.709 -552.846,-409.154 -319.043,-272.769 -567.458,-360.446 -716.02,-250.851 -34.097,26.79 -65.757,70.628 -70.628,99.853 -9.741,63.322 124.207,214.319 323.914,365.317 328.785,248.414 487.088,401.848 487.088,462.734 0,99.854 -68.191,121.772 -175.351,58.45 -228.932,-138.819 -737.939,-375.058 -830.486,-387.235 -119.337,-17.048 -309.301,46.274 -333.655,107.159 -7.306,24.356 4.871,68.193 31.66,104.724 24.354,34.097 355.575,258.157 733.068,499.266 684.359,438.38 1039.934,691.666 1066.723,757.422 19.485,51.145 -38.966,107.16 -107.159,107.16 -31.66,0 -192.4,-26.79 -355.574,-60.885 -309.302,-63.322 -433.509,-63.322 -594.247,2.435 -43.839,17.048 -80.37,48.708 -80.37,68.191 0,46.275 109.594,129.08 316.607,243.545 416.46,226.496 954.694,311.737 1371.154,219.19 z m 6629.274,-1210.414 c 107.159,-43.839 545.538,-238.675 976.612,-431.075 l 781.777,-348.267 -265.464,-594.248 c -146.126,-326.35 -282.511,-657.57 -301.994,-733.069 -53.58,-192.4 -73.064,-677.053 -34.096,-891.371 73.063,-411.59 263.027,-784.213 555.28,-1091.078 219.189,-228.931 428.638,-372.623 752.552,-516.314 131.513,-58.451 759.858,-338.527 1395.508,-621.038 2133.447,-952.257 2089.61,-937.645 2593.746,-937.645 718.458,-2.435 1366.285,338.526 1753.52,923.032 75.499,109.595 204.577,362.882 289.818,562.588 219.191,509.007 326.35,740.375 345.833,740.375 34.096,0 1729.165,-762.294 1758.39,-791.52 12.177,-12.177 -136.386,-370.186 -241.11,-579.636 -384.8,-772.033 -974.177,-1283.478 -1734.034,-1512.409 -506.573,-153.434 -1139.787,-202.142 -1734.038,-136.384 -879.194,97.417 -2238.171,467.604 -3239.138,879.195 -336.09,138.82 -1064.288,526.055 -1539.199,820.743 -925.467,577.2 -1787.614,1300.526 -2189.462,1841.195 -272.77,365.317 -465.17,752.552 -574.765,1151.964 -41.402,153.433 -51.143,265.463 -53.579,591.813 -2.435,443.25 26.79,638.085 158.303,1035.062 82.806,245.98 299.56,718.456 331.221,718.456 12.177,0 109.595,-36.532 214.319,-80.369 z m -596.683,-2886 c 0,-9.742 56.014,-116.901 124.207,-236.238 323.913,-565.022 784.212,-1049.675 1514.844,-1602.521 944.952,-711.149 2077.433,-1361.411 2920.095,-1670.714 684.36,-253.285 1366.284,-443.25 2082.304,-584.506 694.101,-136.385 901.114,-158.303 1492.929,-158.303 579.634,2.435 830.485,34.095 1178.754,155.867 80.368,26.791 148.561,43.839 155.867,38.968 12.177,-14.612 -192.4,-394.541 -328.784,-608.86 -138.821,-216.756 -333.656,-418.897 -431.074,-450.557 -280.075,-90.112 -1500.235,-158.305 -2474.412,-136.385 -983.918,21.919 -1643.922,77.933 -2126.14,182.657 -362.881,80.37 -1032.628,392.106 -1337.058,625.91 -913.29,701.407 -2674.115,2622.972 -3012.642,3287.847 -63.32,126.643 -65.756,253.286 -4.871,506.573 70.629,289.817 197.271,669.745 221.625,669.745 14.614,0 24.356,-9.742 24.356,-19.483 z m 21638.906,-394.542 c 24.354,-38.966 -99.853,-231.366 -204.578,-321.478 -53.579,-43.838 -209.448,-141.256 -348.268,-216.754 -228.931,-124.208 -250.851,-143.692 -258.157,-214.318 l -7.307,-75.5 h 189.965 c 211.883,0 608.86,43.838 1351.671,148.562 511.442,73.063 642.957,82.805 711.148,56.016 82.806,-31.661 21.919,-199.707 -107.159,-311.737 -87.676,-73.063 -258.157,-129.079 -681.924,-224.061 -168.046,-36.532 -316.607,-77.934 -333.655,-87.677 -17.048,-14.612 -19.483,-46.272 -9.741,-87.674 l 19.483,-65.758 h 521.184 c 287.382,0 545.54,-9.741 577.2,-19.483 163.175,-60.886 97.418,-253.286 -129.078,-370.187 l -143.692,-73.064 -504.136,-7.306 c -452.992,-7.306 -509.007,-14.613 -545.538,-53.579 -29.227,-34.097 -34.097,-56.016 -17.05,-90.112 29.227,-53.58 333.657,-131.514 735.505,-189.964 340.961,-51.145 409.154,-70.628 491.959,-148.563 99.853,-97.418 87.676,-148.561 -41.402,-207.012 -219.191,-97.418 -416.462,-124.208 -898.679,-129.078 -392.107,-2.436 -465.169,-9.742 -484.653,-41.404 -31.661,-51.143 -9.742,-107.159 60.886,-153.432 31.66,-19.483 216.754,-80.37 416.46,-133.95 358.011,-97.418 477.347,-146.126 560.153,-216.755 160.739,-141.255 -204.578,-253.285 -657.57,-199.706 -793.954,92.547 -1651.23,370.188 -1865.549,606.426 l -80.37,90.111 -29.225,874.324 -26.789,876.759 58.45,99.853 c 211.884,360.446 750.116,737.94 1229.899,862.147 199.706,51.144 426.201,63.322 450.557,24.354 z m -2773.97,-423.766 c 4.871,-2.436 -75.499,-501.701 -280.076,-1743.777 l -138.819,-840.228 -121.772,7.307 c -65.758,4.871 -124.209,14.613 -129.08,19.484 -7.306,4.87 68.193,396.977 165.611,869.453 97.418,470.039 216.754,1052.11 265.464,1290.784 l 90.111,433.508 73.062,-17.048 c 38.968,-7.306 75.499,-17.048 75.499,-19.483 z m 767.165,-63.322 c 65.757,0 65.757,-2.436 75.499,-199.706 9.741,-182.659 4.871,-224.061 -73.064,-445.686 -75.499,-219.19 -85.24,-277.64 -94.982,-572.329 -14.612,-379.929 21.919,-635.651 129.078,-881.63 48.709,-109.595 70.628,-207.012 75.499,-343.398 l 12.177,-189.965 -353.138,4.871 c -194.836,2.435 -365.317,12.178 -382.365,21.92 -24.354,14.613 -19.483,160.739 34.096,711.149 36.532,377.494 75.499,772.036 87.676,871.889 12.177,99.853 34.096,331.219 48.709,511.442 14.613,180.223 34.096,377.494 41.402,435.944 l 14.613,107.16 160.74,-17.049 c 87.676,-7.306 189.964,-14.612 224.06,-14.612 z m -19785.535,-754.986 c 231.367,-353.14 998.531,-1229.899 1653.666,-1889.905 l 387.235,-389.671 -177.787,-280.076 c -97.418,-153.432 -260.593,-445.685 -362.882,-650.262 l -185.092,-375.058 -53.58,133.948 c -209.448,511.443 -730.632,1000.967 -1251.818,1171.448 -601.554,199.706 -1193.366,87.676 -1626.875,-311.736 -58.451,-51.144 -104.725,-87.676 -104.725,-80.37 0,4.871 43.839,119.336 99.853,250.851 270.335,657.57 730.634,1490.491 1127.611,2045.772 211.883,292.253 375.058,496.83 399.412,496.83 9.742,0 51.145,-53.58 94.982,-121.771 z m -265.463,-2474.411 c 107.159,-21.919 284.947,-85.241 416.461,-148.561 491.96,-236.239 910.855,-796.39 964.434,-1293.22 14.614,-121.773 4.873,-175.352 -87.674,-443.251 -65.758,-199.706 -129.08,-338.526 -182.659,-404.283 -185.093,-228.931 -640.522,-448.122 -1008.274,-484.653 -138.819,-14.613 -214.318,-2.436 -608.86,97.417 -511.443,126.643 -625.908,187.529 -828.05,428.638 -216.754,258.157 -316.608,545.539 -316.608,898.677 0,640.522 411.591,1178.754 1025.322,1339.494 221.624,56.016 382.364,60.887 625.908,9.742 z m 9926.865,-764.729 c 182.657,-482.218 379.928,-1281.043 379.928,-1539.199 0,-63.322 -4.871,-58.451 -124.207,68.192 -170.482,177.787 -358.009,297.124 -606.425,384.8 -182.659,63.322 -241.108,70.628 -499.266,73.063 -243.545,2.436 -323.913,-7.306 -474.911,-53.579 -530.929,-165.61 -1078.904,-572.329 -1354.109,-1003.403 l -70.627,-109.595 -17.048,202.142 c -31.661,367.752 -177.787,857.276 -367.752,1237.205 l -85.24,168.046 358.01,-7.308 c 411.589,-9.741 1366.285,31.662 1648.796,70.629 199.706,26.789 521.186,104.723 594.248,143.691 73.063,38.967 284.947,284.947 394.541,460.298 56.016,92.547 112.031,160.74 119.338,153.433 9.742,-9.741 56.015,-121.771 104.724,-248.415 z m -11799.72,-976.613 c 34.097,-160.738 146.127,-404.283 255.722,-557.715 l 82.805,-114.466 -282.511,68.192 c -153.434,38.968 -284.947,75.499 -292.253,80.37 -4.871,7.306 31.66,165.61 82.805,353.139 51.143,187.53 99.853,333.655 109.594,323.914 7.307,-9.742 26.79,-77.935 43.838,-153.434 z m 11363.775,-338.526 c 192.4,-65.757 343.398,-168.045 504.137,-336.09 253.286,-265.464 360.445,-521.186 360.445,-862.147 0,-119.336 -12.177,-350.704 -26.789,-513.8791 -24.356,-267.8977 -36.533,-314.1718 -114.466,-467.6039 -119.337,-226.497 -358.01,-467.6052 -565.023,-567.4583 -180.222,-90.1114 -479.782,-158.3043 -579.635,-136.3842 -36.532,9.7416 -245.98,65.756 -467.605,124.2072 -460.301,126.6426 -579.638,194.8354 -849.971,484.6531 -414.027,440.8143 -543.105,884.0654 -362.882,1251.8172 92.547,187.528 306.866,438.379 518.749,608.861 526.058,416.46 1122.741,572.329 1583.04,414.024 z M 17757.71,10851.281 c 185.094,-41.402 401.848,-90.112 482.218,-107.16 82.803,-19.483 219.189,-75.499 304.43,-124.207 280.076,-158.304 482.217,-211.885 825.614,-221.626 238.674,-4.871 392.106,-26.79 713.584,-97.418 409.156,-90.111 409.156,-90.111 394.542,-153.432 -9.742,-34.097 -19.483,-63.322 -24.354,-68.193 -7.306,-7.306 -1850.936,394.542 -2374.556,516.314 -87.676,21.92 -282.512,65.757 -433.508,102.288 -219.191,51.145 -272.77,70.628 -263.028,99.853 7.306,19.485 14.612,56.016 14.612,82.805 0,24.356 7.306,46.275 14.613,46.275 7.306,0 163.175,-34.097 345.833,-75.499 z m 2822.678,-299.56 -48.71,-153.433 -160.739,36.532 c -165.61,36.531 -204.578,53.579 -158.303,70.627 14.612,4.871 107.159,51.145 207.012,104.725 99.853,51.144 187.529,94.981 197.271,97.418 7.306,0 -7.306,-70.628 -36.531,-155.869 z m -2915.225,-280.076 c 180.223,-38.966 845.098,-175.352 1473.443,-304.4299 630.778,-129.078 1169.012,-238.6727 1195.801,-245.9803 51.145,-12.1771 51.145,-14.6125 17.048,-175.3508 -48.708,-236.2387 -202.141,-1281.0425 -202.141,-1383.3324 0,-85.2393 -2.436,-87.6747 -77.935,-73.0622 -90.111,14.6124 -1843.63,197.2708 -2089.609,219.1895 -438.379,34.0957 -964.435,94.9822 -981.483,109.5947 -21.919,19.4833 180.223,1497.7965 241.108,1760.8244 21.92,90.112 51.145,163.175 65.758,163.175 17.047,-2.435 177.787,-34.097 358.01,-70.628 z m 9098.812,-823.1787 c 48.708,-116.9023 189.964,-333.6564 292.253,-455.4282 46.272,-53.5803 77.934,-99.8531 73.062,-107.1593 -12.177,-12.177 -482.216,119.3364 -509.007,141.255 -19.484,17.0493 77.934,511.444 99.853,511.444 2.435,0 24.355,-41.4033 43.839,-90.1115 z m 287.382,-725.7626 c 238.673,-73.0636 474.911,-158.3029 523.619,-189.9646 131.514,-87.676 336.094,-187.5291 489.527,-241.1081 150.997,-51.1449 530.926,-116.901 657.57,-114.4655 68.191,2.4354 811.002,-204.5771 849.968,-236.2388 24.354,-19.4832 -51.143,-207.0124 -77.934,-197.2708 -17.048,4.8709 -691.666,233.8033 -1502.668,504.1364 -811.004,272.7698 -1475.88,496.8301 -1480.751,499.2655 -21.919,17.0492 48.71,131.5148 73.064,121.7732 17.047,-7.3063 228.931,-70.6283 467.605,-146.1273 z m 2666.812,-289.8177 c -29.227,-116.9009 -65.758,-219.1894 -82.806,-226.4957 -29.225,-9.7416 -209.448,31.6603 -350.704,80.3699 -19.483,7.3062 21.919,46.2727 109.595,97.4177 77.934,46.2727 192.4,126.6426 253.286,180.2229 60.887,51.1436 112.03,90.1115 114.466,87.6747 2.435,-2.4354 -17.048,-99.8531 -43.837,-219.1895 z m -2659.506,-233.8019 c 345.832,-133.9488 662.441,-260.5928 701.41,-277.6406 70.627,-31.6603 358.009,-143.6905 1169.012,-452.9928 214.319,-82.8039 399.413,-158.3029 409.154,-168.0445 46.273,-46.2741 -409.154,-998.5324 -747.681,-1565.9894 -107.159,-185.0937 -204.577,-336.0918 -214.319,-336.0918 -7.306,0 -555.281,345.8335 -1217.723,769.6 -660.005,423.7665 -1251.817,801.2602 -1315.139,842.6635 -65.756,41.4019 -116.901,82.8053 -116.901,92.5469 0,9.7416 77.934,153.4321 172.917,316.6072 160.739,270.3344 484.652,940.0812 484.652,998.531 0,14.6124 9.742,24.3541 21.919,24.3541 14.613,0 306.866,-109.5948 652.699,-243.5436 z m -9612.689,-60.8866 c 964.434,-104.7239 1882.596,-202.1416 2411.087,-255.7205 287.382,-29.2263 530.927,-60.8866 538.233,-68.1928 19.483,-21.9187 -24.355,-496.8302 -46.274,-521.1842 -14.613,-14.6139 -1186.06,65.756 -2866.515,199.7062 -333.657,24.3541 -650.264,46.2727 -701.407,48.7081 h -94.983 l 14.613,214.3187 c 9.741,116.9023 21.918,267.899 29.225,336.0918 l 12.177,126.6426 90.111,-9.7416 c 48.71,-7.3063 326.35,-38.9666 613.733,-70.6283 z m 133.948,-888.9363 c 660.006,-38.9665 2191.898,-143.6904 2345.331,-160.7383 l 126.643,-12.1784 v -207.0124 c 0,-112.0301 -7.306,-204.577 -17.048,-204.577 -12.177,0 -107.159,29.2249 -214.319,63.322 -228.932,73.0636 -652.699,165.6105 -918.162,202.1416 -392.106,53.5789 -1061.852,77.9344 -1488.055,51.1435 -226.496,-14.6124 -418.896,-19.4832 -426.202,-14.6124 -4.871,7.3062 -2.435,85.2406 7.306,172.9167 14.613,146.1272 19.484,158.3043 68.193,146.1272 29.225,-4.8722 263.027,-21.92 516.313,-36.5325 z m 8122.2,-423.7664 c 640.52,-414.0249 1105.69,-711.1488 1911.821,-1225.0282 470.043,-299.5593 854.843,-557.7153 859.714,-574.7645 9.742,-41.4019 -379.929,-591.8124 -411.589,-582.0708 -14.613,2.4368 -323.916,226.4971 -686.798,496.8315 -365.316,270.3331 -1013.143,747.6799 -1441.782,1061.8517 -428.637,314.1731 -789.083,579.6353 -798.824,589.377 -19.484,17.0492 243.544,414.0262 272.769,414.0262 7.307,0 141.255,-80.3698 294.689,-180.2229 z m -6994.591,-187.5292 c 314.174,-34.0957 764.73,-129.078 1064.289,-226.4957 228.932,-73.0636 245.98,-82.8053 297.124,-172.9167 92.547,-170.4813 136.385,-448.122 136.385,-864.5823 0,-207.0124 -9.741,-426.2019 -19.483,-484.653 -17.049,-99.8531 -24.355,-107.1593 -153.433,-165.6105 -396.977,-175.3508 -1100.82,-375.057 -1600.085,-455.4268 -133.951,-21.9201 -297.124,-51.145 -365.317,-63.322 -250.851,-48.7082 -976.612,-73.0636 -1417.428,-48.7082 -672.182,38.9666 -1100.82,107.1594 -1846.066,294.6885 -326.348,82.8039 -961.998,282.5101 -996.095,316.6072 -12.177,12.177 0,82.8053 34.097,172.9167 172.915,482.2163 550.409,867.0163 1132.48,1159.2694 533.362,265.4636 1429.605,477.3468 2277.139,538.2334 418.896,29.2249 1188.496,29.2249 1456.393,0 z m 7152.895,-864.5822 c 362.88,-267.899 901.113,-667.3115 1200.672,-886.5009 297.124,-219.1895 540.668,-406.7187 540.668,-416.4603 0,-24.3541 -336.09,-399.4124 -360.445,-399.4124 -9.741,0 -131.514,131.5134 -265.463,292.2531 -601.554,713.5841 -1217.722,1256.6884 -1797.356,1583.0372 -65.757,36.5311 -148.562,82.8052 -180.223,102.2885 l -56.015,36.5311 104.723,107.1593 c 63.322,65.7574 114.466,97.4177 129.08,85.2407 14.612,-9.7416 323.913,-238.6727 684.359,-504.1363 z m -1015.58,-7.3063 c 409.154,-207.0124 937.646,-611.2956 1351.67,-1035.0635 1351.671,-1378.4602 2057.952,-2820.241 1882.6,-3835.82119 -38.967,-214.31865 -146.128,-523.6196 -219.19,-618.60188 -31.662,-41.40331 -43.839,-38.96791 -214.321,46.27275 -289.818,146.12723 -547.975,297.1239 -908.421,533.3626 -1246.945,820.74342 -2243.041,1899.64432 -2854.338,3095.44612 -189.965,367.7522 -396.977,859.7114 -396.977,940.0813 0,58.4512 421.332,479.7822 662.441,662.4406 199.706,148.5613 438.378,282.5114 509.007,282.5114 26.789,0 109.594,-31.6616 187.529,-70.6282 z M 13977.903,4351.0858 c 767.165,-260.5928 1531.894,-416.4616 2394.041,-489.5239 328.784,-26.7908 1337.056,-19.4846 1682.89,14.6125 423.766,41.4019 1149.528,199.7062 1556.248,338.5258 99.853,34.0957 185.093,58.4512 189.964,53.5804 19.483,-17.0479 -499.267,-231.3679 -801.261,-328.7856 -316.608,-102.2885 -864.581,-221.6249 -1237.204,-270.333 -114.466,-14.6139 -409.154,-31.6617 -657.57,-41.4034 -954.694,-29.2248 -2021.418,114.4656 -3146.591,423.7665 l -238.674,65.7574 v 136.3856 c 0,114.4656 12.178,170.48 36.532,170.48 2.436,0 99.853,-34.0957 221.625,-73.0623 z m 9858.67,-998.5324 C 24637.833,2039.8506 25955.407,829.4364 27402.06,74.448911 l 224.061,-116.900958 -77.934,-82.805253 c -136.386,-141.25641 -148.563,-141.25641 -343.398,-26.78948 -474.912,280.07467 -1183.625,803.69564 -1660.971,1222.59128 -957.13,840.2281 -1668.278,1794.9204 -2040.901,2744.7433 -170.48,428.6373 -160.739,460.299 24.355,97.4177 92.547,-180.2229 231.367,-433.5081 309.301,-560.1521 z"
         id="path229"
         style="stroke-width:2.43544" /><path
         d="m 32448.299,39738.061 c -808.567,-85.24 -1368.718,-384.8 -1602.521,-859.711 -306.866,-621.037 -38.967,-1283.478 781.777,-1945.917 209.447,-168.046 915.727,-652.699 952.258,-652.699 7.306,0 70.628,-34.096 141.255,-75.499 172.917,-102.289 1088.644,-560.152 1368.718,-684.36 903.551,-396.977 1885.034,-720.89 2428.137,-798.824 99.853,-14.613 224.06,-34.096 277.64,-43.839 180.223,-29.225 747.681,-14.613 927.904,26.791 550.41,119.336 896.243,504.136 949.822,1052.111 12.177,126.643 -7.306,345.832 -48.708,535.797 -146.127,657.57 -871.889,1524.587 -1811.97,2160.237 -591.812,399.412 -1483.184,823.179 -2123.705,1008.273 -545.539,158.304 -691.666,189.964 -1193.367,255.722 -267.898,34.095 -811.002,46.272 -1047.24,21.918 z m 1278.607,-241.108 c 348.268,-60.886 494.395,-90.111 630.779,-129.079 53.581,-14.613 112.031,-29.225 124.208,-31.661 143.691,-31.66 745.245,-248.414 949.822,-340.961 68.193,-31.662 187.53,-85.24 265.464,-121.773 243.544,-104.724 691.666,-362.88 1005.837,-577.2 1137.352,-776.905 1802.228,-1680.455 1794.921,-2442.747 -4.871,-484.653 -319.043,-862.147 -818.308,-976.613 -121.772,-29.226 -428.638,-53.58 -543.103,-46.274 -236.239,17.048 -433.51,38.967 -533.363,58.452 -801.26,163.173 -1509.973,401.847 -2571.826,869.453 -1680.455,737.938 -2793.453,1553.81 -3068.658,2250.348 -197.271,494.395 48.709,1020.45 608.861,1302.961 158.303,80.37 470.039,172.917 681.924,204.577 99.853,14.613 209.448,31.661 243.544,36.531 153.433,26.791 952.258,-9.741 1229.898,-56.014 z"
         id="path231"
         style="stroke-width:2.43544" /><path
         d="m 28247.161,36815.53 c -538.236,-29.225 -1049.678,-143.69 -1441.784,-319.042 -392.107,-175.352 -823.179,-535.797 -998.531,-835.356 -189.965,-323.915 -557.717,-1035.064 -730.634,-1410.122 -959.563,-2084.738 -1458.828,-3777.37 -1544.069,-5228.894 -36.532,-606.426 -31.662,-647.828 116.901,-952.258 433.508,-888.936 1324.88,-1816.841 2491.457,-2596.182 577.199,-384.8 1320.01,-801.261 1960.533,-1098.384 2213.818,-1025.321 3370.653,-1444.218 4620.034,-1673.149 1008.274,-182.658 2079.869,-175.352 2832.419,24.354 377.494,97.418 431.074,131.515 754.988,457.864 754.987,764.729 1395.508,1665.842 2092.044,2946.885 418.897,772.035 803.697,1634.182 1203.11,2710.647 270.333,720.891 280.076,762.294 280.076,1117.868 2.435,448.122 -82.806,798.824 -301.995,1237.205 -565.023,1134.916 -1897.21,2318.541 -3918.628,3482.683 -586.942,336.09 -1475.878,769.598 -2033.593,991.224 -579.636,228.932 -1483.184,533.362 -2021.418,681.924 -199.706,56.015 -418.895,116.901 -487.088,136.385 -65.758,19.483 -336.091,77.934 -596.683,129.078 -874.324,177.787 -1573.296,238.674 -2277.139,197.27 z m 1229.898,-258.156 c 867.018,-97.417 1882.597,-326.35 2873.823,-647.828 913.29,-297.124 1624.439,-591.812 2447.619,-1015.579 1497.797,-772.035 2720.388,-1617.134 3582.535,-2474.41 674.617,-669.745 1052.111,-1261.558 1220.157,-1909.386 48.708,-187.529 60.885,-294.688 60.885,-538.233 l 2.436,-304.431 -133.949,-401.847 c -168.046,-499.266 -241.108,-689.23 -501.701,-1302.962 -886.501,-2092.045 -1821.711,-3587.406 -2920.095,-4668.743 -233.802,-231.366 -280.077,-265.463 -418.896,-311.736 -435.945,-146.127 -964.435,-207.012 -1597.651,-187.529 -903.549,29.225 -1626.875,153.433 -2715.517,470.04 -350.705,102.289 -1103.257,370.188 -1327.317,474.912 -360.446,165.609 -988.789,443.25 -1344.364,594.248 -2350.203,1003.402 -4184.092,2457.361 -4883.063,3872.352 l -121.773,243.545 14.613,255.721 c 48.709,847.534 207.013,1724.293 489.524,2703.341 367.751,1268.865 876.76,2462.232 1690.197,3967.336 226.495,423.766 523.619,698.972 979.047,915.726 343.397,160.739 667.312,243.543 1239.642,314.172 160.74,19.483 1035.064,-9.742 1363.848,-48.709 z"
         id="path233"
         style="stroke-width:2.43544" /><path
         d="m 28441.997,36423.424 c -808.569,-109.595 -1186.063,-231.366 -1607.396,-516.313 -289.816,-197.271 -438.379,-382.365 -723.325,-896.243 -143.691,-260.593 -348.268,-664.876 -457.864,-898.678 -940.08,-2009.24 -1429.603,-3699.437 -1475.878,-5087.638 l -12.177,-379.93 80.37,-194.835 c 414.025,-998.531 1602.521,-2135.883 3161.204,-3017.513 406.721,-231.367 1161.708,-603.99 1631.749,-806.131 194.835,-85.241 457.862,-202.142 584.506,-263.028 662.439,-309.301 1648.795,-662.441 2350.202,-840.229 820.743,-209.447 1327.315,-277.639 2026.287,-275.203 745.246,2.435 1285.915,85.24 1629.311,248.414 119.337,56.016 209.448,131.515 440.816,370.187 1032.627,1069.16 1992.191,2649.761 2756.92,4539.664 148.562,370.188 350.703,925.469 445.686,1225.028 75.499,241.108 70.628,711.149 -12.178,1022.885 -311.736,1181.19 -1492.925,2381.864 -3572.793,3633.681 -1027.757,616.167 -1967.837,1044.804 -3178.252,1446.652 -1383.331,457.864 -2469.539,677.053 -3468.07,703.843 -236.238,4.872 -504.136,0 -599.118,-14.613 z"
         id="path235"
         style="stroke-width:2.43544" /><path
         d="m 22251.101,36050.803 c -224.062,-73.064 -416.462,-280.076 -472.476,-509.009 -90.111,-365.315 136.384,-774.471 482.217,-869.453 148.561,-43.837 433.508,-19.483 555.28,43.839 238.674,121.772 375.058,353.139 377.494,628.343 0,314.173 -124.207,533.363 -379.929,657.57 -160.739,77.935 -406.719,99.853 -562.586,48.71 z m 355.573,-185.094 c 396.977,-114.467 526.057,-630.78 219.19,-886.501 -226.496,-192.4 -494.395,-180.223 -708.714,26.789 -219.189,214.319 -199.705,562.588 41.404,754.988 146.126,116.901 289.817,150.997 448.12,104.724 z"
         id="path237"
         style="stroke-width:2.43544" /><path
         d="m 21610.579,34543.263 c -306.865,-87.676 -506.572,-333.655 -528.49,-650.264 -21.92,-287.38 124.207,-550.409 384.8,-694.1 116.901,-65.756 153.432,-73.063 338.525,-73.063 168.046,0 226.496,12.177 309.301,56.015 165.61,87.676 277.641,202.141 353.14,358.01 168.046,355.575 21.918,776.906 -328.786,947.388 -153.432,75.497 -375.056,99.853 -528.49,56.014 z m 433.509,-250.85 c 150.997,-75.499 250.85,-221.626 267.898,-399.414 46.274,-489.523 -562.587,-752.55 -888.936,-382.363 -241.108,275.204 -131.514,679.489 226.496,820.744 138.821,56.016 214.32,48.708 394.542,-38.967 z"
         id="path239"
         style="stroke-width:2.43544" /><path
         d="m 41476.483,27219.888 c -241.109,-60.885 -452.992,-253.285 -516.313,-470.041 -90.111,-306.865 -19.485,-574.763 204.577,-776.904 224.06,-202.143 491.959,-243.545 764.729,-121.774 236.238,107.16 345.832,236.239 423.767,499.266 87.676,299.559 -80.37,667.311 -377.494,818.309 -112.03,58.45 -367.752,82.806 -499.266,51.144 z m 384.8,-238.673 c 172.917,-85.24 282.512,-255.722 294.689,-455.428 24.354,-428.637 -477.347,-677.053 -835.357,-411.589 -90.112,68.192 -202.142,289.817 -202.142,404.283 0,119.336 104.724,319.042 204.577,396.977 168.046,129.078 365.317,153.433 538.233,65.757 z"
         id="path241"
         style="stroke-width:2.43544" /><path
         d="m 40736.108,25690.431 c -487.088,-172.917 -655.133,-781.777 -319.042,-1159.271 148.562,-170.481 282.511,-238.674 494.395,-253.286 224.06,-14.613 382.364,36.532 535.798,170.481 319.042,280.076 338.525,754.988 46.272,1054.547 -199.706,204.577 -499.265,280.076 -757.423,187.529 z m 392.107,-204.577 c 136.385,-41.403 294.688,-204.578 331.221,-340.962 63.32,-231.367 -41.404,-489.524 -243.545,-596.684 -92.547,-51.145 -136.385,-58.451 -272.77,-51.145 -133.949,7.308 -182.657,21.92 -265.462,80.37 -267.899,189.965 -287.383,606.425 -36.533,806.133 155.869,126.642 304.43,155.867 487.089,102.288 z"
         id="path243"
         style="stroke-width:2.43544" /><path
         d="m 25215.033,22351.44 c -263.028,-82.805 -472.476,-260.593 -601.554,-506.573 -104.724,-197.271 -136.385,-362.88 -124.208,-603.99 17.049,-255.72 109.596,-467.605 287.382,-655.134 141.256,-148.561 272.77,-224.06 852.405,-477.345 221.625,-97.418 905.984,-399.413 1522.152,-672.183 616.169,-272.769 1178.757,-509.007 1251.819,-523.621 73.064,-14.612 214.319,-21.918 316.607,-17.047 362.881,21.918 706.279,260.592 879.195,613.731 73.063,148.562 85.24,197.27 92.547,401.849 7.306,192.4 0,260.591 -41.402,387.235 -94.983,275.204 -267.899,489.524 -504.137,618.602 -185.093,99.853 -3175.818,1422.298 -3285.413,1453.959 -148.563,41.402 -489.524,31.661 -645.393,-19.483 z m 316.608,-182.658 c -577.2,-155.869 -886.501,-789.084 -647.827,-1324.882 53.579,-119.336 56.014,-129.078 14.612,-77.934 -70.628,85.241 -131.515,209.448 -182.658,362.881 -158.304,482.218 287.382,1074.03 803.695,1071.595 h 121.772 z m 360.445,-185.094 c 56.015,-14.613 533.361,-214.319 1059.418,-448.122 523.619,-233.802 1091.08,-484.653 1259.125,-557.717 708.715,-311.736 813.439,-379.927 923.033,-613.731 194.836,-409.154 -14.612,-891.371 -448.122,-1035.062 -277.64,-92.547 -297.124,-87.676 -1483.186,440.814 -577.2,255.722 -1147.094,513.878 -1268.866,569.894 -119.336,53.58 -294.688,131.514 -384.8,172.917 -292.253,124.207 -440.814,292.253 -513.878,582.071 -94.982,379.929 155.869,769.6 567.459,879.194 138.819,38.967 160.739,38.967 289.817,9.742 z m 3572.796,-2009.241 c 0,-197.27 -9.742,-265.462 -53.579,-358.009 -92.547,-202.143 -328.786,-416.461 -518.75,-470.04 -34.096,-9.742 4.871,26.789 85.24,77.934 172.917,112.03 277.641,238.673 370.188,438.379 56.014,119.336 68.193,175.352 68.193,348.269 0,114.465 -7.306,241.108 -19.485,280.075 l -17.048,73.063 41.404,-73.063 c 34.095,-56.015 43.837,-129.078 43.837,-316.608 z"
         id="path245"
         style="stroke-width:2.43544" /><path
         d="m 24128.826,20137.623 c -265.463,-94.983 -496.83,-333.657 -584.506,-608.861 -60.886,-189.964 -38.968,-491.959 46.273,-667.311 99.853,-202.142 238.674,-345.834 426.203,-438.38 150.997,-75.498 177.786,-80.369 418.896,-80.369 241.108,0 267.899,4.871 418.895,80.369 333.657,163.175 513.878,455.428 516.315,832.921 2.436,182.659 -7.307,226.496 -75.499,370.188 -102.288,216.754 -245.98,367.751 -443.251,465.168 -138.82,68.193 -187.529,77.935 -379.929,85.241 -163.174,4.871 -250.85,-4.871 -343.397,-38.966 z m 635.65,-241.11 c 282.511,-148.561 443.251,-484.653 377.494,-796.389 -56.015,-267.898 -253.285,-467.604 -535.797,-540.668 -258.157,-65.757 -513.879,12.177 -694.101,214.319 -136.385,153.433 -189.964,311.736 -177.787,526.055 17.048,282.511 194.835,533.362 440.814,623.474 146.127,53.579 460.299,38.966 589.377,-26.791 z"
         id="path247"
         style="stroke-width:2.43544" /><path
         d="m 27406.931,18413.329 c -358.01,-155.868 -431.073,-635.65 -133.949,-881.63 92.547,-73.062 228.931,-126.643 336.09,-126.643 87.676,0 377.497,-231.366 489.527,-394.541 77.934,-114.466 92.547,-155.869 92.547,-258.158 0,-228.931 -187.529,-530.926 -404.284,-645.391 -80.372,-43.839 -141.257,-53.58 -319.045,-53.58 h -219.189 l -133.951,138.821 c -107.159,109.594 -160.738,143.69 -275.203,177.786 -238.675,68.192 -445.687,4.871 -618.604,-192.4 -131.513,-148.562 -170.481,-289.818 -133.948,-484.653 48.708,-265.463 209.447,-428.638 472.476,-484.652 119.336,-24.356 155.867,-21.92 280.076,17.048 92.545,29.225 189.963,38.966 287.38,34.096 696.54,-46.273 1035.067,53.58 1390.64,404.283 301.997,297.124 472.477,689.23 472.477,1078.901 0,314.171 -80.37,528.491 -301.995,825.615 -102.289,136.385 -340.961,350.703 -509.007,457.863 -38.967,24.355 -87.676,82.805 -114.466,131.514 -126.642,245.979 -416.463,360.445 -657.572,255.721 z m 881.632,-652.698 c -90.111,-119.337 -331.219,-404.284 -343.396,-404.284 -7.306,0 -34.097,17.049 -58.451,34.097 -38.967,29.225 -34.096,41.402 65.757,138.819 70.627,70.629 116.901,143.692 136.384,216.754 17.048,60.887 34.096,124.209 38.967,141.257 7.307,21.919 34.097,12.177 94.982,-34.096 53.58,-41.403 77.934,-75.499 65.757,-92.547 z m 319.043,-272.77 c 38.968,-46.274 65.757,-90.111 60.887,-92.546 -2.436,-4.871 -109.595,-75.499 -236.238,-160.74 l -228.932,-153.432 -48.708,58.45 -46.275,58.451 202.142,187.529 c 112.03,104.724 209.448,187.529 216.755,189.965 7.307,0 43.838,-38.968 80.369,-87.677 z m 226.497,-387.235 c 68.191,-165.61 63.321,-168.046 -238.674,-214.319 -275.205,-41.403 -309.301,-36.532 -311.736,43.838 0,21.918 440.815,245.98 494.394,253.286 9.742,2.436 36.531,-36.532 56.016,-82.805 z m -236.239,-470.041 c 70.629,7.307 241.11,-9.741 265.464,-26.789 26.789,-17.048 26.789,-38.968 2.435,-124.207 -17.048,-56.016 -43.837,-107.161 -58.451,-112.032 -24.354,-9.741 -214.318,56.016 -465.168,160.74 -38.968,14.612 -48.71,36.531 -41.404,77.934 9.742,56.015 17.048,58.45 148.563,41.402 73.062,-9.741 141.255,-19.483 148.561,-17.048 z m -114.465,-362.881 c 124.207,-60.885 231.366,-116.901 233.802,-119.336 17.049,-12.177 -19.484,-94.982 -63.321,-150.997 l -43.839,-58.451 -233.802,165.61 c -231.366,160.739 -233.801,165.61 -197.27,221.625 19.483,31.661 46.272,56.016 58.451,56.016 12.177,0 124.207,-51.145 245.979,-114.467 z m -275.205,-353.138 197.27,-202.142 -87.676,-77.934 c -51.143,-43.839 -97.417,-80.37 -104.724,-80.37 -17.047,0 -294.688,452.993 -294.688,477.347 0,12.177 70.628,77.934 87.676,82.805 2.435,0 92.547,-90.111 202.142,-199.706 z m -319.043,-204.577 c 58.451,-141.257 99.853,-263.028 94.982,-270.335 -7.306,-4.87 -63.322,-26.789 -124.207,-43.838 -126.645,-38.967 -109.595,-60.885 -158.307,207.014 -63.321,345.832 -63.321,348.267 58.454,362.879 14.612,0 70.627,-114.465 129.078,-255.72 z m -438.382,-75.499 -7.306,-287.382 -109.595,7.306 c -58.451,4.871 -112.031,12.177 -119.337,17.048 -4.871,7.306 4.87,97.417 19.484,199.706 17.048,104.724 34.096,226.497 41.402,270.334 9.742,70.628 19.483,77.935 97.418,77.935 h 85.24 z"
         id="path249"
         style="stroke-width:2.43544" /><path
         d="m 23390.887,18157.608 c -482.218,-82.805 -808.567,-608.861 -674.618,-1083.771 85.241,-297.124 345.833,-560.152 608.862,-621.039 431.072,-94.982 842.662,82.805 1027.756,445.686 87.676,170.482 109.594,484.654 48.709,681.924 -131.515,411.59 -555.281,655.133 -1010.709,577.2 z m 435.945,-243.545 c 348.267,-155.867 509.007,-560.152 355.573,-886.501 -70.627,-155.867 -248.414,-314.171 -409.154,-367.752 -494.395,-163.173 -983.918,319.044 -837.791,823.181 107.159,375.058 545.538,586.941 891.372,431.072 z"
         id="path251"
         style="stroke-width:2.43544" /><path
         d="m 19067.977,13140.596 c -160.739,-38.967 -423.766,-192.4 -528.49,-311.737 -499.266,-565.023 -326.35,-1422.297 353.138,-1755.954 772.036,-379.929 1738.906,48.71 1787.616,793.954 12.177,187.53 -80.37,504.138 -197.271,679.489 -182.658,267.899 -484.653,489.524 -793.955,582.071 -143.691,41.403 -462.733,48.709 -621.038,12.177 z"
         id="path253"
         style="stroke-width:2.43544" /><path
         d="m 28283.693,11085.082 c -528.491,-129.078 -1000.97,-577.199 -1059.421,-1008.272 -38.966,-287.3824 82.805,-584.5063 353.14,-857.2762 284.949,-284.9468 635.652,-438.3789 1010.711,-440.8143 606.425,-2.4354 1083.771,513.8779 1083.771,1173.8831 0,608.8604 -384.8,1071.5944 -952.258,1144.6574 -226.496,29.226 -270.333,26.79 -435.943,-12.178 z"
         id="path255"
         style="stroke-width:2.43544" /><path
         d="m 19109.381,6163.0541 c -141.257,-51.1435 -314.173,-211.8832 -389.671,-360.4458 -51.145,-97.4177 -65.758,-170.48 -75.499,-333.6551 -9.742,-187.5291 -4.871,-221.6248 53.579,-343.398 75.499,-160.7383 238.674,-319.0426 399.412,-389.6708 163.175,-70.6268 438.381,-73.0622 594.248,-2.4354 163.175,73.0636 345.833,253.2866 409.155,401.8492 75.498,177.7862 73.063,460.2976 -7.306,635.6498 -70.628,153.4334 -197.271,287.3822 -340.962,362.8813 -133.949,68.1914 -489.524,85.2406 -642.956,29.2248 z m 401.847,-258.1573 c 153.433,-38.9666 304.431,-189.9646 343.397,-345.8321 90.112,-358.0105 -282.511,-679.4885 -625.908,-538.2334 -414.026,175.3521 -387.235,725.7626 41.402,879.1947 109.595,38.9679 104.724,38.9679 241.109,4.8708 z"
         id="path257"
         style="stroke-width:2.43544" /><path
         d="m 24265.21,5522.5336 c -219.189,-70.6282 -401.847,-233.8033 -494.394,-438.3803 -70.628,-155.8689 -70.628,-433.5082 0,-591.8124 73.063,-160.7397 253.286,-343.3981 404.283,-411.5895 185.094,-85.2406 470.041,-80.3698 638.087,7.3062 158.302,82.8053 311.736,243.5436 382.364,396.977 75.498,165.6105 77.935,438.379 2.436,599.1187 -70.629,155.8688 -211.884,306.8655 -358.011,379.9291 -97.418,51.1436 -168.046,65.7574 -319.043,70.6282 -107.159,4.8708 -221.624,0 -255.722,-12.177 z m 428.639,-331.221 c 153.432,-77.9344 233.802,-194.8354 248.415,-365.3167 14.612,-172.9153 -58.45,-331.2196 -197.271,-421.3311 -136.384,-90.1115 -379.929,-94.9823 -509.007,-7.3062 -304.431,209.4478 -270.335,657.5698 65.757,808.5664 133.949,60.8866 248.414,58.4512 392.106,-14.6124 z"
         id="path259"
         style="stroke-width:2.43544" /><path
         d="m 16123.528,36691.323 c -65.758,-9.741 -141.255,-34.096 -170.482,-53.579 -29.224,-19.484 -94.982,-48.709 -148.561,-65.757 -126.644,-41.403 -272.77,-177.788 -309.301,-287.382 -17.049,-48.71 -29.226,-165.611 -26.791,-260.593 4.871,-250.85 119.338,-472.476 379.93,-730.632 260.592,-258.158 418.895,-338.527 672.182,-340.963 155.869,0 199.706,9.742 294.688,65.758 146.128,85.24 270.335,275.205 323.914,484.653 48.709,197.27 48.709,265.463 2.435,445.685 -56.014,209.449 -104.724,299.56 -243.543,440.815 -207.013,214.319 -528.491,338.526 -774.471,301.995 z m 94.982,-406.718 c 17.048,-9.742 -2.435,-53.581 -56.016,-121.772 l -80.368,-104.724 -24.356,60.885 c -46.272,126.644 58.452,236.239 160.74,165.611 z m 613.731,-540.669 c 9.742,-224.061 -150.997,-462.733 -309.301,-462.733 -104.724,0 -297.124,107.159 -411.589,226.495 l -82.805,85.241 131.513,-43.839 c 146.127,-48.708 231.368,-41.402 377.494,26.791 94.982,46.273 250.851,231.367 250.851,299.56 2.435,70.626 41.402,-48.71 43.837,-131.515 z"
         id="path269"
         style="stroke-width:2.43544" /><path
         d="m 45641.089,29326.546 c -304.43,-116.901 -411.59,-387.235 -270.333,-686.794 94.982,-199.707 255.72,-348.269 423.766,-389.671 73.064,-17.048 112.03,-14.613 280.076,14.612 377.494,65.758 509.008,238.673 440.815,591.813 -34.096,180.223 -163.174,348.268 -340.962,438.379 -129.078,65.757 -401.847,82.805 -533.362,31.661 z m 440.816,-462.734 c 14.612,-14.613 -65.758,-226.496 -90.112,-243.544 -21.919,-12.178 -197.271,31.661 -197.271,51.144 0,19.483 75.499,163.175 104.724,199.706 24.354,31.66 150.998,24.354 182.659,-7.306 z"
         id="path293"
         style="stroke-width:2.43544" /><path
         d="m 19793.74,28661.67 c -68.193,-24.354 -170.481,-80.37 -226.497,-124.207 -94.982,-75.499 -270.335,-304.43 -270.335,-353.14 0,-9.741 -31.66,-56.014 -70.626,-102.288 -172.917,-194.836 -112.031,-528.491 143.69,-798.825 292.253,-309.301 703.843,-336.092 974.177,-65.757 211.883,211.883 306.866,477.346 287.382,806.131 -9.741,163.175 -24.354,211.884 -94.982,328.785 -99.853,165.611 -226.496,272.77 -379.929,319.043 -146.126,43.839 -211.883,41.403 -362.88,-9.742 z m 292.252,-331.219 c 87.676,-36.533 199.707,-199.707 211.884,-306.867 14.613,-136.385 -31.661,-338.526 -99.853,-448.121 -136.385,-214.319 -323.915,-260.593 -504.138,-121.772 l -92.545,70.627 168.044,14.614 c 124.209,9.742 177.788,26.789 199.707,58.45 48.709,68.193 41.403,175.352 -17.048,233.803 -43.838,43.837 -70.628,48.708 -165.611,36.531 -80.368,-9.741 -129.078,-4.871 -160.738,19.483 -46.274,31.661 -38.968,36.532 80.37,53.581 70.627,9.741 146.126,31.66 165.609,51.143 51.145,53.581 43.839,192.4 -17.048,248.416 l -51.143,46.273 70.626,38.968 c 85.241,46.273 112.031,46.273 211.884,4.871 z"
         id="path295"
         style="stroke-width:2.43544" /><path
         d="m 44075.1,21581.84 c -94.983,-38.968 -243.544,-207.012 -414.025,-460.299 l -138.82,-209.448 -258.157,-2.435 c -345.832,-2.436 -574.765,-19.483 -647.827,-46.274 -65.758,-24.354 -75.499,-77.933 -36.533,-182.659 31.661,-80.368 280.076,-343.396 452.993,-474.91 l 126.643,-99.853 -70.628,-143.692 c -36.532,-77.934 -97.418,-211.883 -131.514,-297.124 -36.531,-85.24 -90.111,-204.577 -124.207,-270.334 -136.386,-265.462 36.531,-336.09 416.46,-168.044 80.37,34.095 250.851,124.207 375.059,194.835 l 231.366,131.513 85.241,-43.838 c 48.709,-24.354 180.223,-133.949 294.688,-243.544 236.238,-226.496 372.623,-326.349 450.558,-326.349 70.626,0 150.996,77.933 170.479,168.045 19.485,85.24 -41.401,423.768 -109.594,623.474 -26.79,77.934 -46.273,143.69 -43.838,148.561 4.871,2.436 138.82,58.451 299.56,121.772 214.318,85.241 316.607,141.256 384.8,207.014 160.738,160.738 124.207,197.271 -445.687,433.508 l -401.848,165.61 -65.756,275.206 c -77.934,326.348 -102.29,394.541 -172.916,457.862 -73.064,63.322 -143.692,77.934 -226.497,41.403 z m 133.95,-406.72 c 26.789,-97.418 63.32,-248.414 77.934,-333.655 17.048,-85.241 46.273,-172.917 68.192,-194.835 21.92,-21.919 197.27,-104.724 387.235,-182.659 192.4,-80.37 338.527,-153.432 328.786,-163.173 -12.179,-12.179 -129.08,-65.758 -263.029,-119.338 -379.929,-153.432 -399.412,-189.965 -292.253,-528.491 31.661,-104.723 65.758,-238.674 75.499,-299.559 l 14.613,-109.595 -177.788,172.917 c -172.917,168.045 -501.701,399.413 -565.023,399.413 -17.048,0 -112.03,-51.145 -211.883,-112.032 -172.917,-107.159 -494.395,-277.639 -523.62,-277.639 -29.226,0 -4.87,68.191 141.255,372.621 82.806,177.788 148.563,345.834 143.692,375.059 -4.871,29.226 -36.532,70.628 -73.063,94.982 -36.531,21.919 -158.305,119.336 -270.335,214.319 -243.543,204.578 -248.414,199.706 224.061,207.013 170.481,2.436 326.35,12.177 348.268,19.484 19.484,7.306 80.37,80.369 136.385,163.173 163.175,241.11 338.527,477.347 358.01,477.347 12.177,0 43.839,-80.37 73.064,-175.352 z"
         id="path321"
         style="stroke-width:2.43544" /><path
         d="m 16376.814,16939.886 c -253.286,-48.708 -440.815,-245.979 -440.815,-462.734 0,-192.399 168.046,-467.604 348.268,-579.634 109.595,-65.757 255.721,-82.805 433.509,-51.145 301.994,56.016 435.945,175.352 455.428,404.283 34.095,421.331 -367.752,772.036 -796.39,689.23 z m 331.22,-494.394 c 17.048,-14.613 -46.274,-185.094 -77.934,-209.448 -38.967,-31.66 -182.659,-12.177 -182.659,26.789 0,12.177 21.92,68.193 51.145,121.774 46.273,92.545 53.579,97.417 126.643,82.803 43.838,-9.741 80.37,-19.483 82.805,-21.918 z"
         id="path355"
         style="stroke-width:2.43544" /><path
         d="m 36939.255,8778.7195 c -362.881,-275.2052 -876.759,-798.8248 -1183.626,-1200.6727 -321.478,-423.7678 -623.473,-971.7415 -798.825,-1453.9592 -97.418,-267.899 -112.03,-331.221 -92.547,-389.6708 24.356,-70.6282 107.159,-109.5947 202.142,-94.9823 70.628,9.7417 99.853,46.2728 146.127,197.2708 119.336,372.623 411.589,947.3861 664.876,1315.1382 275.204,399.4125 752.551,918.1626 1137.351,1237.2052 107.159,90.1115 202.141,172.9167 211.883,187.5292 26.791,36.5311 24.355,153.432 -4.871,209.4478 -36.531,65.7574 -192.4,63.322 -282.51,-7.3062 z"
         id="path373"
         style="stroke-width:2.43544" /><path
         d="m 34791.195,5325.2614 c -155.869,-65.756 -92.547,-316.6072 80.368,-316.6072 87.676,0 182.659,85.2407 182.659,163.1751 0,114.4656 -146.126,199.7062 -263.027,153.4321 z"
         id="path375"
         style="stroke-width:2.43544" /></g></g></svg>
